<svg width="18" height="16" viewBox="0 0 18 16" fill="none" xmlns="http://www.w3.org/2000/svg">
<path d="M6.53704 11.1496C6.90664 11.1496 7.24824 11.2392 7.56184 11.4184C7.87544 11.5976 8.12184 11.844 8.30104 12.1576C8.48024 12.4712 8.56984 12.8128 8.56984 13.1824C8.56984 13.552 8.48024 13.8936 8.30104 14.2072C8.12184 14.5208 7.87544 14.7672 7.56184 14.9464C7.24824 15.1256 6.90664 15.2152 6.53704 15.2152C6.16744 15.2152 5.82584 15.1256 5.51224 14.9464C5.19864 14.7672 4.95224 14.5208 4.77304 14.2072C4.59384 13.8936 4.50424 13.552 4.50424 13.1824C4.50424 12.8128 4.59384 12.4712 4.77304 12.1576C4.95224 11.844 5.19864 11.5976 5.51224 11.4184C5.82584 11.2392 6.16744 11.1496 6.53704 11.1496ZM13.0722 11.1328C12.7026 11.0992 12.3498 11.158 12.0138 11.3092C11.6778 11.4604 11.4034 11.6844 11.1906 11.9812C10.9778 12.278 10.8546 12.6112 10.821 12.9808C10.7874 13.3504 10.8462 13.7004 10.9974 14.0308C11.1486 14.3612 11.3726 14.6328 11.6694 14.8456C11.9662 15.0584 12.2994 15.1816 12.669 15.2152C12.8034 15.2264 12.9378 15.2264 13.0722 15.2152C13.4418 15.1816 13.7722 15.0584 14.0634 14.8456C14.3546 14.6328 14.5758 14.3612 14.727 14.0308C14.8782 13.7004 14.937 13.3504 14.9034 12.9808C14.8586 12.488 14.6654 12.068 14.3238 11.7208C13.9822 11.3736 13.565 11.1776 13.0722 11.1328ZM17.2554 3.37123C17.1546 3.21443 17.0034 3.13603 16.8018 3.13603L5.88184 3.10243L4.20184 3.13603L3.63064 0.532033C3.59704 0.397633 3.52704 0.288433 3.42064 0.204433C3.31424 0.120433 3.19384 0.0784334 3.05944 0.0784334H0.589844V1.25443H2.58904L4.42024 9.70483C4.44264 9.83923 4.50984 9.95123 4.62184 10.0408C4.73384 10.1304 4.85704 10.1752 4.99144 10.1752H15.3402C15.4746 10.1752 15.595 10.1332 15.7014 10.0492C15.8078 9.96523 15.8778 9.85603 15.9114 9.72163L17.373 3.87523C17.429 3.68483 17.3898 3.51683 17.2554 3.37123Z" fill="white"/>
</svg>
