<svg width="19" height="18" viewBox="0 0 19 18" fill="none" xmlns="http://www.w3.org/2000/svg">
<path d="M15.9131 11.6367C17.6709 13.3945 18.5498 15.5156 18.5498 18H17.1436C17.1436 15.9141 16.3994 14.127 14.9111 12.6387C13.4229 11.1504 11.6357 10.4062 9.5498 10.4062C7.46387 10.4062 5.67676 11.1504 4.18848 12.6387C2.7002 14.127 1.95605 15.9141 1.95605 18H0.549805C0.549805 15.5156 1.42871 13.3945 3.18652 11.6367C4.1709 10.6523 5.30762 9.9375 6.59668 9.49219C5.91699 9.02344 5.37207 8.4082 4.96191 7.64648C4.55176 6.88477 4.34668 6.07031 4.34668 5.20312C4.34668 3.77344 4.85645 2.54883 5.87598 1.5293C6.89551 0.509766 8.12012 0 9.5498 0C10.9795 0 12.2041 0.509766 13.2236 1.5293C14.2432 2.54883 14.7529 3.77344 14.7529 5.20312C14.7529 5.78906 14.6592 6.35156 14.4717 6.89062C14.2842 7.42969 14.0205 7.92187 13.6807 8.36719C13.3408 8.8125 12.9482 9.1875 12.5029 9.49219C13.792 9.9375 14.9287 10.6523 15.9131 11.6367ZM6.86035 7.89258C6.86035 7.89258 7.04492 8.07715 7.41406 8.44629C7.7832 8.81543 8.49512 9 9.5498 9C10.6045 9 11.501 8.63086 12.2393 7.89258C12.9775 7.1543 13.3467 6.25781 13.3467 5.20312C13.3467 4.14844 12.9775 3.25195 12.2393 2.51367C11.501 1.77539 10.6045 1.40625 9.5498 1.40625C8.49512 1.40625 7.59863 1.77539 6.86035 2.51367C6.12207 3.25195 5.75293 4.14844 5.75293 5.20312C5.75293 6.25781 6.12207 7.1543 6.86035 7.89258Z" fill="#0D0D0D"/>
</svg>
