<svg width="19" height="18" viewBox="0 0 19 18" fill="none" xmlns="http://www.w3.org/2000/svg">
<g clip-path="url(#clip0_1_791)">
<path d="M17.9278 17.028L13.2658 12.456C13.8898 11.772 14.3758 11.01 14.7238 10.17C15.0718 9.306 15.2458 8.4 15.2458 7.452C15.2458 6.096 14.8978 4.842 14.2018 3.69C13.5418 2.562 12.6358 1.668 11.4838 1.008C10.3078 0.336001 9.03284 7.7486e-07 7.65884 7.7486e-07C6.28484 7.7486e-07 5.00984 0.336001 3.83384 1.008C2.69384 1.668 1.78784 2.562 1.11584 3.69C0.431844 4.842 0.0898438 6.096 0.0898438 7.452C0.0898438 8.808 0.431844 10.062 1.11584 11.214C1.78784 12.342 2.69384 13.236 3.83384 13.896C5.00984 14.568 6.28784 14.904 7.66784 14.904C8.54384 14.904 9.40184 14.754 10.2418 14.454C11.0338 14.178 11.7658 13.776 12.4378 13.248L17.0998 17.838C17.2198 17.946 17.3578 18 17.5138 18C17.6698 18 17.8048 17.943 17.9188 17.829C18.0328 17.715 18.0898 17.58 18.0898 17.424C18.0898 17.268 18.0358 17.136 17.9278 17.028ZM7.66784 13.752C6.50384 13.752 5.42384 13.464 4.42784 12.888C3.46784 12.336 2.70584 11.586 2.14184 10.638C1.55384 9.654 1.25984 8.592 1.25984 7.452C1.25984 6.312 1.55384 5.25 2.14184 4.266C2.70584 3.318 3.46784 2.568 4.42784 2.016C5.42384 1.44 6.50084 1.152 7.65884 1.152C8.81684 1.152 9.89384 1.44 10.8898 2.016C11.8618 2.568 12.6298 3.318 13.1938 4.266C13.7818 5.25 14.0758 6.312 14.0758 7.452C14.0758 8.592 13.7818 9.654 13.1938 10.638C12.6298 11.586 11.8618 12.336 10.8898 12.888C9.89384 13.464 8.81984 13.752 7.66784 13.752Z" fill="#0D0D0D"/>
</g>
<defs>
<clipPath id="clip0_1_791">
<rect width="18" height="18" fill="white" transform="matrix(1 0 0 -1 0.0898438 18)"/>
</clipPath>
</defs>
</svg>
